<svg width="384" height="384" viewBox="0 0 384 384" fill="none" xmlns="http://www.w3.org/2000/svg">
<g filter="url(#filter0_d_13_1822)">
<g clip-path="url(#clip0_13_1822)">
<rect x="32" y="22" width="320" height="320" rx="80" fill="#1AD0D0"/>
<mask id="mask0_13_1822" style="mask-type:alpha" maskUnits="userSpaceOnUse" x="32" y="22" width="320" height="320">
<rect x="32" y="22" width="320" height="320" rx="72" fill="#D9D9D9"/>
</mask>
<g mask="url(#mask0_13_1822)">
<g filter="url(#filter1_f_13_1822)">
<circle cx="284.5" cy="320.5" r="138.5" fill="#F4FF5D" fill-opacity="0.8"/>
</g>
<g filter="url(#filter2_f_13_1822)">
<circle cx="106.5" cy="43.5" r="138.5" fill="#89FFE8" fill-opacity="0.8"/>
</g>
<g filter="url(#filter3_f_13_1822)">
<circle cx="303.5" cy="94.5" r="119.5" fill="#31FF80" fill-opacity="0.6"/>
</g>
<g filter="url(#filter4_f_13_1822)">
<circle cx="86.5" cy="352.5" r="119.5" fill="#73FFA9" fill-opacity="0.6"/>
</g>
</g>
<path fill-rule="evenodd" clip-rule="evenodd" d="M192.15 87V146.999V153.999H199.15H208.75C215.222 153.999 220.47 159.246 220.47 165.719C220.47 172.192 215.222 177.439 208.75 177.439H199.15H192.15V184.439V209.399V246.359V251.384H192.095V299L109 251.709V87.5334L109.001 87.5339V87H192.15ZM206.15 87.7444V139.999H208.75C222.954 139.999 234.47 151.514 234.47 165.719C234.47 179.924 222.954 191.439 208.75 191.439H206.15V209.399V246.359V250.639C245.147 245.297 275.191 211.849 275.191 171.384V167C275.191 126.535 245.147 93.0868 206.15 87.7444Z" fill="white"/>
</g>
</g>
<defs>
<filter id="filter0_d_13_1822" x="0" y="0" width="384" height="384" filterUnits="userSpaceOnUse" color-interpolation-filters="sRGB">
<feFlood flood-opacity="0" result="BackgroundImageFix"/>
<feColorMatrix in="SourceAlpha" type="matrix" values="0 0 0 0 0 0 0 0 0 0 0 0 0 0 0 0 0 0 127 0" result="hardAlpha"/>
<feOffset dy="10"/>
<feGaussianBlur stdDeviation="16"/>
<feComposite in2="hardAlpha" operator="out"/>
<feColorMatrix type="matrix" values="0 0 0 0 0 0 0 0 0 0 0 0 0 0 0 0 0 0 0.04 0"/>
<feBlend mode="normal" in2="BackgroundImageFix" result="effect1_dropShadow_13_1822"/>
<feBlend mode="normal" in="SourceGraphic" in2="effect1_dropShadow_13_1822" result="shape"/>
</filter>
<filter id="filter1_f_13_1822" x="46" y="82" width="477" height="477" filterUnits="userSpaceOnUse" color-interpolation-filters="sRGB">
<feFlood flood-opacity="0" result="BackgroundImageFix"/>
<feBlend mode="normal" in="SourceGraphic" in2="BackgroundImageFix" result="shape"/>
<feGaussianBlur stdDeviation="50" result="effect1_foregroundBlur_13_1822"/>
</filter>
<filter id="filter2_f_13_1822" x="-132" y="-195" width="477" height="477" filterUnits="userSpaceOnUse" color-interpolation-filters="sRGB">
<feFlood flood-opacity="0" result="BackgroundImageFix"/>
<feBlend mode="normal" in="SourceGraphic" in2="BackgroundImageFix" result="shape"/>
<feGaussianBlur stdDeviation="50" result="effect1_foregroundBlur_13_1822"/>
</filter>
<filter id="filter3_f_13_1822" x="84" y="-125" width="439" height="439" filterUnits="userSpaceOnUse" color-interpolation-filters="sRGB">
<feFlood flood-opacity="0" result="BackgroundImageFix"/>
<feBlend mode="normal" in="SourceGraphic" in2="BackgroundImageFix" result="shape"/>
<feGaussianBlur stdDeviation="50" result="effect1_foregroundBlur_13_1822"/>
</filter>
<filter id="filter4_f_13_1822" x="-133" y="133" width="439" height="439" filterUnits="userSpaceOnUse" color-interpolation-filters="sRGB">
<feFlood flood-opacity="0" result="BackgroundImageFix"/>
<feBlend mode="normal" in="SourceGraphic" in2="BackgroundImageFix" result="shape"/>
<feGaussianBlur stdDeviation="50" result="effect1_foregroundBlur_13_1822"/>
</filter>
<clipPath id="clip0_13_1822">
<rect x="32" y="22" width="320" height="320" rx="80" fill="white"/>
</clipPath>
</defs>
</svg>
