<?xml version="1.0" encoding="UTF-8"?>
<svg version="1.1" xmlns="http://www.w3.org/2000/svg" width="225" height="225">
<path d="M0 0 C74.25 0 148.5 0 225 0 C225 74.25 225 148.5 225 225 C150.75 225 76.5 225 0 225 C0 150.75 0 76.5 0 0 Z " fill="#FDFDFD" transform="translate(0,0)"/>
<path d="M0 0 C3.39451284 1.31499146 5.36331848 3.77812283 7.16796875 6.83984375 C7.64212941 9.86562454 7.83167763 12.31906278 7.77978516 15.33276367 C7.78544998 16.16453125 7.79111481 16.99629883 7.79695129 17.85327148 C7.81041298 20.59274904 7.78952903 23.33089337 7.76953125 26.0703125 C7.77503572 27.98595582 7.78316419 29.90159323 7.79379272 31.81721497 C7.81666747 36.85846388 7.81246767 41.89927914 7.79998779 46.94055176 C7.78168312 54.9904705 7.79183327 63.040132 7.82584763 71.08999062 C7.8319068 73.88784693 7.81874413 76.68514361 7.80386353 79.48295593 C7.56072632 96.20715012 7.56072632 96.20715012 15.4296875 110.40625 C23.58983909 117.13608288 32.79498744 117.04009937 42.91796875 117.08984375 C43.95179687 117.11046875 44.985625 117.13109375 46.05078125 117.15234375 C53.98570417 117.19231817 61.11589466 116.21823507 68.04296875 112.15234375 C76.79253529 102.63075663 76.468436 89.53597848 76.546875 77.34765625 C76.56311493 75.95253408 76.58030125 74.55742264 76.59837341 73.162323 C76.64375651 69.50408043 76.67866767 65.84582113 76.71057129 62.18743896 C76.80514034 51.6238437 76.93204977 41.06071344 77.10870361 30.49816895 C77.14625056 28.18046661 77.17859375 25.86266924 77.20379639 23.5447998 C77.23892758 20.74346872 77.30476246 17.94494329 77.3828125 15.14453125 C77.38688614 14.3680423 77.39095978 13.59155334 77.39515686 12.79153442 C77.60960499 7.09670478 79.25549551 4.70299854 83.16796875 0.83984375 C85.55462573 -0.35348474 87.0662239 -0.30576287 89.73095703 -0.3371582 C90.6802005 -0.34999344 91.62944397 -0.36282867 92.60745239 -0.37605286 C93.64062592 -0.38343979 94.67379944 -0.39082672 95.73828125 -0.3984375 C97.34181961 -0.41054512 97.34181961 -0.41054512 98.97775269 -0.42289734 C101.25256727 -0.4367582 103.52740283 -0.44747135 105.80224609 -0.45532227 C109.23056793 -0.47234638 112.65787689 -0.51619073 116.0859375 -0.56054688 C135.8001492 -0.70016441 153.85582649 1.11022841 168.83984375 15.24609375 C183.24826907 31.29843337 184.94910118 52.83543846 184.30419922 73.38818359 C183.31420038 91.2046143 177.65246717 108.44115692 164.46875 120.9296875 C151.44043149 131.74606739 134.61744034 135.80150861 117.98046875 136.15234375 C116.22669922 136.20841797 116.22669922 136.20841797 114.4375 136.265625 C110.52825162 135.75653531 108.94497735 134.57623796 106.16796875 131.83984375 C104.58898822 128.68188268 104.34868704 125.23313739 105.16796875 121.83984375 C107.17582705 119.04260568 108.78018965 117.18140247 112.21240234 116.33666992 C114.65861005 116.07318004 117.08471375 115.93943686 119.54296875 115.83984375 C131.18300388 115.00349117 143.09789909 113.03686544 152.234375 105.109375 C161.68574687 94.0159466 163.55561358 80.50144578 163.41796875 66.40234375 C163.40781738 64.89293213 163.40781738 64.89293213 163.39746094 63.35302734 C163.2171921 50.40092107 161.63583001 38.18945196 153.16796875 27.83984375 C145.50496534 21.68207315 137.17687396 20.55796968 127.63671875 20.42578125 C126.32193542 20.39673203 126.32193542 20.39673203 124.98059082 20.36709595 C122.20981253 20.30781754 119.4389915 20.26112388 116.66796875 20.21484375 C114.77732668 20.17661624 112.88670114 20.1375618 110.99609375 20.09765625 C106.38685465 20.00215925 101.77753418 19.91793969 97.16796875 19.83984375 C97.17320557 20.48268311 97.17844238 21.12552246 97.18383789 21.7878418 C97.2927877 37.68210226 97.15634034 53.56962674 96.84957886 69.46109009 C96.8120929 71.45010909 96.77764726 73.43918791 96.74636841 75.42831421 C96.45404014 93.56617048 95.84276349 111.52715307 83.16796875 125.83984375 C69.05930428 138.42996312 49.98113811 138.72379077 32.16796875 137.83984375 C20.03729383 136.72108692 8.14331248 131.88393321 -0.7265625 123.41796875 C-3.35218151 120.20292506 -5.34603884 116.88496581 -7.26953125 113.21484375 C-7.76501465 112.29372803 -7.76501465 112.29372803 -8.27050781 111.35400391 C-14.13282092 99.23344136 -13.16970953 84.45404542 -13.203125 71.30859375 C-13.21211373 69.45967547 -13.2212359 67.61075783 -13.23048401 65.76184082 C-13.2468462 61.91607914 -13.25465264 58.07040331 -13.25756836 54.22460938 C-13.26299063 49.30405513 -13.30088206 44.38430677 -13.34631252 39.46398163 C-13.37605383 35.65837634 -13.38329101 31.85296788 -13.38429451 28.04725647 C-13.38848962 26.23238872 -13.40089542 24.41752 -13.42181206 22.60276794 C-13.44871398 20.07115429 -13.4439098 17.54144989 -13.43139648 15.00976562 C-13.44623077 14.26786987 -13.46106506 13.52597412 -13.47634888 12.76159668 C-13.39583293 7.03188426 -11.75712384 4.71084326 -7.83203125 0.83984375 C-5.18431258 -0.48401558 -2.89747901 -0.1401102 0 0 Z " fill="#343434" transform="translate(26.83203125,67.16015625)"/>
<path d="M0 0 C3.5049799 2.69831005 4.85107361 4.16337799 5.63491821 8.56677246 C5.66443466 9.95761907 5.66672183 11.34921479 5.64697266 12.74023438 C5.66011505 13.88508049 5.66011505 13.88508049 5.67352295 15.05305481 C5.69546735 17.56720416 5.68098339 20.07958388 5.6640625 22.59375 C5.6674321 24.34582862 5.67228592 26.09790496 5.67855835 27.84997559 C5.68592291 31.51853737 5.67523802 35.18648965 5.65185547 38.85498047 C5.62336744 43.55296086 5.63977372 48.24951309 5.66971779 52.9474411 C5.68780233 56.56437911 5.68202754 60.18097957 5.66907883 63.79792786 C5.66574799 65.52985301 5.6698206 67.26180899 5.68147659 68.99369812 C5.69420509 71.4165439 5.67478404 73.83709074 5.64697266 76.25976562 C5.65709381 76.97264236 5.66721497 77.6855191 5.67764282 78.41999817 C5.5965062 82.24324262 5.08579844 83.89204398 2.67831421 86.92126465 C-0.67740654 89.52575942 -2.76953049 90 -7 90 C-9.79844028 88.81843633 -11.40561013 87.87349933 -13.11756897 85.35765076 C-14.34499429 82.07825539 -14.30314904 78.91992895 -14.30639648 75.46508789 C-14.31472 74.71175674 -14.32304352 73.9584256 -14.33161926 73.18226624 C-14.35568568 70.6956768 -14.36448643 68.20934974 -14.37109375 65.72265625 C-14.38006146 63.99157127 -14.38918333 62.26048708 -14.39845276 60.52940369 C-14.41493532 56.90215166 -14.42264174 53.27499187 -14.42553711 49.64770508 C-14.43092538 45.0025056 -14.46862629 40.35817388 -14.51428127 35.71321964 C-14.54403736 32.13839049 -14.55126032 28.56377089 -14.55226326 24.98882866 C-14.55646717 23.27640234 -14.5689084 21.56397549 -14.58978081 19.85167122 C-14.6166715 17.45523472 -14.61187878 15.06081752 -14.59936523 12.66430664 C-14.61419952 11.95920959 -14.62903381 11.25411255 -14.64431763 10.52764893 C-14.58672518 6.6498865 -14.09431049 5.1140157 -11.58753967 2.08348083 C-7.32693926 -1.34714456 -5.36508652 -1.27307138 0 0 Z " fill="#323232" transform="translate(85,68)"/>
<path d="M0 0 C5.7957881 3.19452887 9.65649093 7.71947278 11.75 14 C12.45259011 21.12956192 12.14487813 27.14443351 7.75 33 C3.7399299 37.17754402 -0.32851051 40.63288161 -6.203125 41.37109375 C-14.72737247 41.54279068 -19.61255967 40.4352955 -25.7734375 34.54296875 C-30.6843963 29.1636237 -31.73222898 23.58170444 -31.5625 16.52734375 C-30.88634164 11.05891298 -28.48434362 6.82102488 -24.375 3.1875 C-16.26143342 -2.4919966 -9.29197184 -4.14220432 0 0 Z " fill="#343434" transform="translate(102.25,22)"/>
</svg>
